<?xml version="1.0" encoding="utf-8"?>
<!-- Generator: Adobe Illustrator 21.1.0, SVG Export Plug-In . SVG Version: 6.00 Build 0)  -->
<svg version="1.1" id="Calque_1" xmlns="http://www.w3.org/2000/svg" xmlns:xlink="http://www.w3.org/1999/xlink" x="0px" y="0px"
	 viewBox="0 0 186 40" style="enable-background:new 0 0 186 40;" xml:space="preserve">
<style type="text/css">
	.st0{fill:#6BC267;}
	.st1{fill:#39AD35;}
	.st2{clip-path:url(#SVGID_2_);fill:url(#SVGID_3_);}
	.st3{clip-path:url(#SVGID_5_);fill:url(#SVGID_6_);}
	.st4{clip-path:url(#SVGID_8_);fill:url(#SVGID_9_);}
	.st5{clip-path:url(#SVGID_11_);fill:url(#SVGID_12_);}
	.st6{clip-path:url(#SVGID_14_);fill:url(#SVGID_15_);}
	.st7{clip-path:url(#SVGID_17_);fill:url(#SVGID_18_);}
	.st8{fill:#FFF3C2;}
	.st9{clip-path:url(#SVGID_20_);fill:url(#SVGID_21_);}
	.st10{fill:#9E002B;}
</style>
<path class="st0" d="M179.9,0.5c-0.1,0.4-3.4,1.2-3.7,4.1c0,0-0.9-1.2-2.3-1.5c0,0-0.5,1.8-0.3,3.5c-0.4-0.3-0.9-0.5-1.2-0.6
	c0,0,0.2,1.4,1.6,3c0.4,0.7,1.3,1.3,3.3,1.9c0,0,0,0,0,0c0,0,0,0,0,0c0,0,0.1,0,0.1,0L180,0.7C179.9,0.6,179.9,0.5,179.9,0.5"/>
<path class="st1" d="M184,8.8c-0.3-0.1-0.8-0.1-1.3,0c1-1.4,1.3-3.3,1.3-3.3c-1.4-0.3-2.8,0.3-2.8,0.3c0.9-2.4-0.9-4.7-1.3-5.2
	l-2.4,10.2c2,0.4,3,0.2,3.7-0.2C183.2,10,184,8.8,184,8.8"/>
<path class="st0" d="M164.4,9.1c0.4,0.2,0.6,3.5,3.4,4.3c0,0-1.3,0.6-1.9,2c0,0,1.7,0.8,3.4,0.9c-0.3,0.4-0.7,0.8-0.8,1.1
	c0,0,1.4,0,3.2-1.1c0.7-0.3,1.5-1,2.4-3c0,0,0,0,0,0c0,0,0,0,0,0c0,0,0-0.1,0-0.1L164.6,9C164.5,9,164.4,9.1,164.4,9.1"/>
<path class="st1" d="M173.3,6.4c-0.1,0.3-0.2,0.8-0.2,1.3c-1.2-1.2-3-1.9-3-1.9c-0.6,1.4-0.1,2.8-0.1,2.8c-2.2-1.3-4.7,0-5.3,0.4
	l9.6,4.2c0.7-1.9,0.8-2.9,0.5-3.7C174.2,7.4,173.3,6.4,173.3,6.4"/>
<path class="st0" d="M14.5,7.6c-0.1,0.4-3.4,1.2-3.7,4.1c0,0-0.9-1.2-2.3-1.5c0,0-0.5,1.8-0.3,3.5c-0.4-0.3-0.9-0.5-1.2-0.6
	c0,0,0.2,1.4,1.6,3c0.4,0.7,1.3,1.3,3.3,1.9c0,0,0,0,0,0c0,0,0,0,0,0c0,0,0.1,0,0.1,0l2.4-10.2C14.5,7.6,14.5,7.6,14.5,7.6"/>
<path class="st1" d="M18.6,15.8c-0.3-0.1-0.8-0.1-1.3,0c1-1.4,1.3-3.3,1.3-3.3c-1.4-0.3-2.8,0.3-2.8,0.3c0.9-2.4-0.9-4.7-1.3-5.2
	l-2.4,10.2c2,0.4,3,0.2,3.7-0.2C17.8,17,18.6,15.8,18.6,15.8"/>
<path class="st0" d="M1,16.3c0.4,0.2,0.6,3.5,3.4,4.3c0,0-1.3,0.6-1.9,2c0,0,1.7,0.8,3.4,0.9c-0.3,0.4-0.7,0.8-0.8,1.1
	c0,0,1.4,0,3.2-1.1c0.7-0.3,1.5-1,2.4-3c0,0,0,0,0,0c0,0,0,0,0,0c0,0,0-0.1,0-0.1l-9.6-4.2C1,16.2,1,16.3,1,16.3"/>
<path class="st1" d="M9.8,13.6c-0.1,0.3-0.2,0.8-0.2,1.3c-1.2-1.2-3-1.9-3-1.9c-0.6,1.4-0.1,2.8-0.1,2.8c-2.2-1.3-4.7,0-5.3,0.4
	l9.6,4.2c0.7-1.9,0.8-2.9,0.5-3.7C10.8,14.6,9.8,13.6,9.8,13.6"/>
<g>
	<defs>
		<polygon id="SVGID_1_" points="124.3,13.6 118.3,13.6 109.6,13.6 117.1,33.2 119.7,33.2 119.7,38.2 114.9,38.2 114.9,39 119.7,39 
			122.1,39 126.5,39 126.5,38.2 122.1,38.2 122.1,33.2 124.7,33.2 132.2,13.6 		"/>
	</defs>
	<clipPath id="SVGID_2_">
		<use xlink:href="#SVGID_1_"  style="overflow:visible;"/>
	</clipPath>
	
		<linearGradient id="SVGID_3_" gradientUnits="userSpaceOnUse" x1="1" y1="1186.2111" x2="2" y2="1186.2111" gradientTransform="matrix(22.5696 0 0 -22.5696 87.0423 26798.6621)">
		<stop  offset="0" style="stop-color:#690029"/>
		<stop  offset="0.2273" style="stop-color:#690029"/>
		<stop  offset="0.994" style="stop-color:#80002B"/>
		<stop  offset="1" style="stop-color:#80002B"/>
	</linearGradient>
	<rect x="109.6" y="13.6" class="st2" width="22.6" height="25.4"/>
</g>
<g>
	<defs>
		<polygon id="SVGID_4_" points="11.6,13.6 11.6,22.2 18.7,22.2 18.7,38.8 29,38.8 29,22.2 36.1,22.2 36.1,13.6 		"/>
	</defs>
	<clipPath id="SVGID_5_">
		<use xlink:href="#SVGID_4_"  style="overflow:visible;"/>
	</clipPath>
	
		<linearGradient id="SVGID_6_" gradientUnits="userSpaceOnUse" x1="1" y1="1182.4995" x2="2" y2="1182.4995" gradientTransform="matrix(24.4094 0 0 -24.4094 -12.765 28890.3281)">
		<stop  offset="0" style="stop-color:#690029"/>
		<stop  offset="0.2273" style="stop-color:#690029"/>
		<stop  offset="0.994" style="stop-color:#80002B"/>
		<stop  offset="1" style="stop-color:#80002B"/>
	</linearGradient>
	<rect x="11.6" y="13.6" class="st3" width="24.4" height="25.2"/>
</g>
<g>
	<defs>
		<polygon id="SVGID_7_" points="58.9,13.6 58.9,22.2 65.9,22.2 65.9,38.8 76.3,38.8 76.3,22.2 83.3,22.2 83.3,13.6 		"/>
	</defs>
	<clipPath id="SVGID_8_">
		<use xlink:href="#SVGID_7_"  style="overflow:visible;"/>
	</clipPath>
	
		<linearGradient id="SVGID_9_" gradientUnits="userSpaceOnUse" x1="1" y1="1182.4995" x2="2" y2="1182.4995" gradientTransform="matrix(24.4094 0 0 -24.4094 34.4863 28890.3164)">
		<stop  offset="0" style="stop-color:#690029"/>
		<stop  offset="0.2273" style="stop-color:#690029"/>
		<stop  offset="0.994" style="stop-color:#80002B"/>
		<stop  offset="1" style="stop-color:#80002B"/>
	</linearGradient>
	<rect x="58.9" y="13.6" class="st4" width="24.4" height="25.2"/>
</g>
<g>
	<defs>
		<polygon id="SVGID_10_" points="86,13.6 86,38.8 104.6,38.8 104.6,30.8 96.4,30.8 96.4,29.4 102.6,29.4 102.6,23.4 96.4,23.4 
			96.4,22.1 104.1,22.1 104.1,13.6 		"/>
	</defs>
	<clipPath id="SVGID_11_">
		<use xlink:href="#SVGID_10_"  style="overflow:visible;"/>
	</clipPath>
	
		<linearGradient id="SVGID_12_" gradientUnits="userSpaceOnUse" x1="1" y1="1196.7026" x2="2" y2="1196.7026" gradientTransform="matrix(18.6025 0 0 -18.6025 67.4127 22287.8438)">
		<stop  offset="0" style="stop-color:#690029"/>
		<stop  offset="0.2273" style="stop-color:#690029"/>
		<stop  offset="0.994" style="stop-color:#80002B"/>
		<stop  offset="1" style="stop-color:#80002B"/>
	</linearGradient>
	<rect x="86" y="13.6" class="st5" width="18.6" height="25.2"/>
</g>
<g>
	<defs>
		<rect id="SVGID_13_" x="136.7" y="13.6" width="10.4" height="25.2"/>
	</defs>
	<clipPath id="SVGID_14_">
		<use xlink:href="#SVGID_13_"  style="overflow:visible;"/>
	</clipPath>
	
		<linearGradient id="SVGID_15_" gradientUnits="userSpaceOnUse" x1="1" y1="1244.1836" x2="2" y2="1244.1836" gradientTransform="matrix(10.3618 0 0 -10.3618 126.3111 12918.2197)">
		<stop  offset="0" style="stop-color:#690029"/>
		<stop  offset="0.2273" style="stop-color:#690029"/>
		<stop  offset="0.994" style="stop-color:#80002B"/>
		<stop  offset="1" style="stop-color:#80002B"/>
	</linearGradient>
	<rect x="136.7" y="13.6" class="st6" width="10.4" height="25.2"/>
</g>
<g>
	<defs>
		<polygon id="SVGID_16_" points="167,13.6 167,24.4 166.9,24.4 159.5,13.6 150.1,13.6 150.1,38.8 159.4,38.8 159.4,28.1 
			159.5,28.1 166.9,38.8 176.3,38.8 176.3,13.6 		"/>
	</defs>
	<clipPath id="SVGID_17_">
		<use xlink:href="#SVGID_16_"  style="overflow:visible;"/>
	</clipPath>
	
		<linearGradient id="SVGID_18_" gradientUnits="userSpaceOnUse" x1="1" y1="1179.3615" x2="2" y2="1179.3615" gradientTransform="matrix(26.2176 0 0 -26.2176 123.8757 30946.2207)">
		<stop  offset="0" style="stop-color:#690029"/>
		<stop  offset="0.2273" style="stop-color:#690029"/>
		<stop  offset="0.994" style="stop-color:#80002B"/>
		<stop  offset="1" style="stop-color:#80002B"/>
	</linearGradient>
	<rect x="150.1" y="13.6" class="st7" width="26.2" height="25.2"/>
</g>
<polygon class="st8" points="124.5,30.1 129.7,16.8 112.1,16.8 117.3,30.1 "/>
<g>
	<defs>
		<polygon id="SVGID_19_" points="48.6,13.6 46.2,13.6 41.8,13.6 41.8,14.4 46.2,14.4 46.2,19.4 43.6,19.4 36.1,39 43.9,39 50,39 
			58.6,39 51.2,19.4 48.6,19.4 48.6,14.4 53.4,14.4 53.4,13.6 		"/>
	</defs>
	<clipPath id="SVGID_20_">
		<use xlink:href="#SVGID_19_"  style="overflow:visible;"/>
	</clipPath>
	
		<linearGradient id="SVGID_21_" gradientUnits="userSpaceOnUse" x1="1" y1="1186.2111" x2="2" y2="1186.2111" gradientTransform="matrix(22.5696 0 0 -22.5696 13.5082 26798.6621)">
		<stop  offset="0" style="stop-color:#690029"/>
		<stop  offset="0.2273" style="stop-color:#690029"/>
		<stop  offset="0.994" style="stop-color:#80002B"/>
		<stop  offset="1" style="stop-color:#80002B"/>
	</linearGradient>
	<rect x="36.1" y="13.6" class="st9" width="22.6" height="25.4"/>
</g>
<polygon class="st10" points="43.8,22.5 38.5,35.9 56.2,35.9 50.9,22.5 "/>
<path class="st10" d="M175.8,15.8c0.1,1.3-0.9,2.5-2.2,2.6c-1.3,0.1-2.5-0.9-2.6-2.2c-0.1-1.3,0.9-2.5,2.2-2.6
	C174.5,13.5,175.7,14.5,175.8,15.8"/>
<path class="st10" d="M177.8,20.9c0.1,1.3-0.9,2.5-2.2,2.6c-1.3,0.1-2.5-0.9-2.6-2.2c-0.1-1.3,0.9-2.5,2.2-2.6
	C176.5,18.6,177.7,19.6,177.8,20.9"/>
<path class="st10" d="M180.6,25.9c0.1,1.3-0.9,2.5-2.2,2.6c-1.3,0.1-2.5-0.9-2.6-2.2c-0.1-1.3,0.9-2.5,2.2-2.6
	C179.4,23.6,180.5,24.6,180.6,25.9"/>
<path class="st10" d="M178.6,11.2c0.1,1.3-0.9,2.5-2.2,2.6c-1.3,0.1-2.5-0.9-2.6-2.2c-0.1-1.3,0.9-2.5,2.2-2.6
	C177.3,8.9,178.5,9.9,178.6,11.2"/>
<path class="st10" d="M181.4,15.8c0.1,1.3-0.9,2.5-2.2,2.6c-1.3,0.1-2.5-0.9-2.6-2.2c-0.1-1.3,0.9-2.5,2.2-2.6
	C180.1,13.5,181.3,14.4,181.4,15.8"/>
<path class="st10" d="M184.2,11.1c0.1,1.3-0.9,2.5-2.2,2.6c-1.3,0.1-2.5-0.9-2.6-2.2c-0.1-1.3,0.9-2.5,2.2-2.6
	C182.9,8.8,184.1,9.8,184.2,11.1"/>
<path class="st10" d="M187.1,16.9c0.1,1.3-0.9,2.5-2.2,2.6c-1.3,0.1-2.5-0.9-2.6-2.2c-0.1-1.3,0.9-2.5,2.2-2.6
	C185.8,14.6,187,15.6,187.1,16.9"/>
<path class="st10" d="M186.3,25.8c0.1,1.3-0.9,2.5-2.2,2.6c-1.3,0.1-2.5-0.9-2.6-2.2c-0.1-1.3,0.9-2.5,2.2-2.6
	C185,23.5,186.1,24.5,186.3,25.8"/>
<path class="st10" d="M183.5,30.9c0.1,1.3-0.9,2.5-2.2,2.6c-1.3,0.1-2.5-0.9-2.6-2.2c-0.1-1.3,0.9-2.5,2.2-2.6
	C182.2,28.6,183.4,29.5,183.5,30.9"/>
<path class="st10" d="M183.4,20.8c0.1,1.3-0.9,2.5-2.2,2.6c-1.3,0.1-2.5-0.9-2.6-2.2c-0.1-1.3,0.9-2.5,2.2-2.6
	C182.2,18.5,183.3,19.5,183.4,20.8"/>
<path class="st10" d="M9.8,24.6c-0.2,1.1-1.3,1.8-2.3,1.6c-1.1-0.2-1.8-1.3-1.6-2.3c0.2-1.1,1.3-1.8,2.3-1.6
	C9.3,22.4,10,23.5,9.8,24.6"/>
<path class="st10" d="M10.2,29.1C10,30.2,9,30.9,7.9,30.7c-1.1-0.2-1.8-1.3-1.6-2.3c0.2-1.1,1.3-1.8,2.3-1.6
	C9.7,27,10.5,28,10.2,29.1"/>
<path class="st10" d="M11.4,33.7c-0.2,1.1-1.3,1.8-2.3,1.6c-1.1-0.2-1.8-1.3-1.6-2.3s1.3-1.8,2.3-1.6C10.9,31.6,11.6,32.7,11.4,33.7
	"/>
<path class="st10" d="M13.1,21.5c-0.2,1.1-1.3,1.8-2.3,1.6c-1.1-0.2-1.8-1.3-1.6-2.3c0.2-1.1,1.3-1.8,2.3-1.6
	C12.6,19.4,13.3,20.4,13.1,21.5"/>
<path class="st10" d="M14.3,25.8c-0.2,1.1-1.3,1.8-2.3,1.6c-1.1-0.2-1.8-1.3-1.6-2.3c0.2-1.1,1.3-1.8,2.3-1.6
	C13.8,23.7,14.5,24.7,14.3,25.8"/>
<path class="st10" d="M17.6,22.7c-0.2,1.1-1.3,1.8-2.3,1.6c-1.1-0.2-1.8-1.3-1.6-2.3c0.2-1.1,1.3-1.8,2.3-1.6
	C17.1,20.6,17.8,21.6,17.6,22.7"/>
<path class="st10" d="M18.6,28c-0.2,1.1-1.3,1.8-2.3,1.6c-1.1-0.2-1.8-1.3-1.6-2.3c0.2-1.1,1.3-1.8,2.3-1.6
	C18.1,25.9,18.8,26.9,18.6,28"/>
<path class="st10" d="M15.9,35c-0.2,1.1-1.3,1.8-2.3,1.6c-1.1-0.2-1.8-1.3-1.6-2.3c0.2-1.1,1.3-1.8,2.3-1.6
	C15.4,32.8,16.1,33.9,15.9,35"/>
<path class="st10" d="M12.5,38.4c-0.2,1.1-1.3,1.8-2.3,1.6c-1.1-0.2-1.8-1.3-1.6-2.3s1.3-1.8,2.3-1.6C12,36.2,12.7,37.3,12.5,38.4"
	/>
<path class="st10" d="M14.7,30.3c-0.2,1.1-1.3,1.8-2.3,1.6c-1.1-0.2-1.8-1.3-1.6-2.3c0.2-1.1,1.3-1.8,2.3-1.6
	C14.3,28.2,15,29.2,14.7,30.3"/>
</svg>
