<?xml version="1.0" encoding="utf-8"?>
<!-- Generator: Adobe Illustrator 21.1.0, SVG Export Plug-In . SVG Version: 6.00 Build 0)  -->
<svg version="1.1" id="Calque_1" xmlns="http://www.w3.org/2000/svg" xmlns:xlink="http://www.w3.org/1999/xlink" x="0px" y="0px"
	 viewBox="0 0 64 64" style="enable-background:new 0 0 64 64;" xml:space="preserve">
<style type="text/css">
	.st0{fill:url(#SVGID_1_);}
	.st1{fill:#FFFFFF;}
	.st2{fill:#6BC267;}
	.st3{fill:#39AD35;}
	.st4{fill:#7B002B;}
	.st5{fill:none;}
</style>
<linearGradient id="SVGID_1_" gradientUnits="userSpaceOnUse" x1="0" y1="32" x2="64" y2="32">
	<stop  offset="0" style="stop-color:#690029"/>
	<stop  offset="1" style="stop-color:#80002B"/>
</linearGradient>
<path class="st0" d="M58,64H6c-3.3,0-6-2.7-6-6V6c0-3.3,2.7-6,6-6h52c3.3,0,6,2.7,6,6v52C64,61.3,61.3,64,58,64z"/>
<g>
	<path class="st1" d="M17.9,28.6H6.2V14.3H47v14.3H35.2v27.8H17.9V28.6z"/>
</g>
<path class="st2" d="M45,3c-0.1,0.6-5.7,2-6.2,6.9c0,0-1.5-2-3.9-2.6c0,0-0.9,3.1-0.5,6c-0.7-0.4-1.5-0.9-2-1c0,0,0.4,2.3,2.7,5
	c0.7,1.1,2.2,2.2,5.6,3.1c0,0,0,0,0,0c0,0,0,0,0,0c0.1,0,0.1,0,0.2,0l4.1-17.2C45,3.1,45,3,45,3"/>
<path class="st3" d="M52,16.9c-0.5-0.1-1.4-0.1-2.2,0c1.7-2.4,2.2-5.5,2.2-5.5c-2.4-0.6-4.6,0.6-4.6,0.6c1.5-4-1.4-7.8-2.2-8.7
	L41,20.4c3.4,0.6,5.1,0.4,6.2-0.3C50.6,18.9,52,16.9,52,16.9"/>
<path class="st2" d="M18.9,17.4c0.6,0.3,1,5.9,5.7,7.3c0,0-2.2,1.1-3.2,3.4c0,0,2.9,1.4,5.8,1.5c-0.5,0.6-1.1,1.3-1.3,1.8
	c0,0,2.4,0.1,5.4-1.8c1.2-0.5,2.5-1.8,4.1-5c0,0,0,0,0,0c0,0,0,0,0,0c0-0.1,0-0.1,0.1-0.2l-16.2-7C19,17.3,18.9,17.4,18.9,17.4"/>
<path class="st3" d="M33.8,12.9c-0.2,0.5-0.3,1.4-0.4,2.2c-2.1-2-5.1-3.2-5.1-3.2c-1,2.3-0.3,4.7-0.3,4.7c-3.7-2.2-8,0.1-9,0.7
	l16.2,7c1.2-3.2,1.3-5,0.8-6.2C35.5,14.6,33.8,12.9,33.8,12.9"/>
<path class="st1" d="M40.3,28.2c0.2,2.4-1.6,4.5-4,4.7c-2.4,0.2-4.5-1.6-4.7-4c-0.2-2.4,1.6-4.5,4-4.7C38,24,40.1,25.8,40.3,28.2"/>
<path class="st1" d="M44,37.3c0.2,2.4-1.6,4.5-4,4.7c-2.4,0.2-4.5-1.6-4.7-4c-0.2-2.4,1.6-4.5,4-4.7C41.7,33.1,43.8,34.9,44,37.3"/>
<path class="st1" d="M49.1,45.3c0.2,2.4-1.6,4.5-4,4.7c-2.4,0.2-4.5-1.6-4.7-4c-0.2-2.4,1.6-4.5,4-4.7
	C46.8,41.1,48.9,42.9,49.1,45.3"/>
<path class="st1" d="M45.4,19.7c0.2,2.4-1.6,4.5-4,4.7c-2.4,0.2-4.5-1.6-4.7-4c-0.2-2.4,1.6-4.5,4-4.7
	C43.1,15.6,45.2,17.3,45.4,19.7"/>
<path class="st1" d="M50.5,28c0.2,2.4-1.6,4.5-4,4.7c-2.4,0.2-4.5-1.6-4.7-4c-0.2-2.4,1.6-4.5,4-4.7C48.2,23.9,50.3,25.6,50.5,28"/>
<path class="st1" d="M55.6,19.6c0.2,2.4-1.6,4.5-4,4.7c-2.4,0.2-4.5-1.6-4.7-4c-0.2-2.4,1.6-4.5,4-4.7
	C53.3,15.4,55.4,17.2,55.6,19.6"/>
<path class="st1" d="M60.8,29c0.2,2.4-1.6,4.5-4,4.7s-4.5-1.6-4.7-4c-0.2-2.4,1.6-4.5,4-4.7C58.5,24.8,60.6,26.6,60.8,29"/>
<path class="st1" d="M58.2,44c0.2,2.4-1.6,4.5-4,4.7c-2.4,0.2-4.5-1.6-4.7-4c-0.2-2.4,1.6-4.5,4-4.7C55.9,39.9,58,41.6,58.2,44"/>
<path class="st1" d="M53.2,53.2c0.2,2.4-1.6,4.5-4,4.7c-2.4,0.2-4.5-1.6-4.7-4c-0.2-2.4,1.6-4.5,4-4.7C50.9,49,53,50.8,53.2,53.2"/>
<path class="st1" d="M54.2,36.1c0.2,2.4-1.6,4.5-4,4.7c-2.4,0.2-4.5-1.6-4.7-4c-0.2-2.4,1.6-4.5,4-4.7C51.9,31.9,54,33.7,54.2,36.1"
	/>
<path class="st4" d="M39.7,27.1c0.2,2.2-1.5,4.2-3.7,4.4c-2.2,0.2-4.2-1.5-4.4-3.7c-0.2-2.2,1.5-4.2,3.7-4.4
	C37.6,23.2,39.6,24.9,39.7,27.1"/>
<path class="st4" d="M43.2,35.6c0.2,2.2-1.5,4.2-3.7,4.4c-2.2,0.2-4.2-1.5-4.4-3.7c-0.2-2.2,1.5-4.2,3.7-4.4
	C41,31.7,43,33.4,43.2,35.6"/>
<path class="st4" d="M47.9,44c0.2,2.2-1.5,4.2-3.7,4.4c-2.2,0.2-4.2-1.5-4.4-3.7c-0.2-2.2,1.5-4.2,3.7-4.4
	C45.8,40.1,47.7,41.8,47.9,44"/>
<path class="st4" d="M44.5,19.2c0.2,2.2-1.5,4.2-3.7,4.4c-2.2,0.2-4.2-1.5-4.4-3.7c-0.2-2.2,1.5-4.2,3.7-4.4
	C42.4,15.4,44.3,17,44.5,19.2"/>
<path class="st4" d="M49.2,27c0.2,2.2-1.5,4.2-3.7,4.4c-2.2,0.2-4.2-1.5-4.4-3.7c-0.2-2.2,1.5-4.2,3.7-4.4
	C47.1,23.1,49,24.8,49.2,27"/>
<path class="st4" d="M53.9,19.1c0.2,2.2-1.5,4.2-3.7,4.4c-2.2,0.2-4.2-1.5-4.4-3.7c-0.2-2.2,1.5-4.2,3.7-4.4
	C51.8,15.2,53.8,16.9,53.9,19.1"/>
<path class="st4" d="M58.8,28.9c0.2,2.2-1.5,4.2-3.7,4.4c-2.2,0.2-4.2-1.5-4.4-3.7c-0.2-2.2,1.5-4.2,3.7-4.4
	C56.7,25,58.6,26.7,58.8,28.9"/>
<path class="st4" d="M57.4,43.9c0.2,2.2-1.5,4.2-3.7,4.4c-2.2,0.2-4.2-1.5-4.4-3.7c-0.2-2.2,1.5-4.2,3.7-4.4
	C55.2,40,57.2,41.7,57.4,43.9"/>
<path class="st4" d="M52.7,52.4c0.2,2.2-1.5,4.2-3.7,4.4c-2.2,0.2-4.2-1.5-4.4-3.7c-0.2-2.2,1.5-4.2,3.7-4.4
	C50.5,48.6,52.5,50.2,52.7,52.4"/>
<path class="st4" d="M52.6,35.5c0.2,2.2-1.5,4.2-3.7,4.4c-2.2,0.2-4.2-1.5-4.4-3.7C44.4,34,46,32,48.3,31.8
	C50.5,31.6,52.4,33.3,52.6,35.5"/>
<rect x="18.9" y="3" class="st5" width="39.9" height="53.8"/>
</svg>
